<svg xmlns="http://www.w3.org/2000/svg" viewBox="0 0 96 96">
  <circle cx="32" cy="22" r="10" fill="#c0392b"/>
  <circle cx="48" cy="22" r="10" fill="#c0392b"/>
  <circle cx="64" cy="22" r="10" fill="#c0392b"/>
  <circle cx="24" cy="36" r="10" fill="#c0392b"/>
  <circle cx="40" cy="36" r="10" fill="#c0392b"/>
  <circle cx="56" cy="36" r="10" fill="#c0392b"/>
  <circle cx="72" cy="36" r="10" fill="#c0392b"/>
  <circle cx="32" cy="50" r="10" fill="#c0392b"/>
  <circle cx="48" cy="50" r="10" fill="#c0392b"/>
  <circle cx="64" cy="50" r="10" fill="#c0392b"/>
  <circle cx="40" cy="64" r="10" fill="#c0392b"/>
  <circle cx="56" cy="64" r="10" fill="#c0392b"/>
  <circle cx="48" cy="76" r="9" fill="#c0392b"/>
  <circle cx="32" cy="22" r="4" fill="#e74c3c" opacity="0.5"/>
  <circle cx="48" cy="22" r="4" fill="#e74c3c" opacity="0.5"/>
  <circle cx="64" cy="22" r="4" fill="#e74c3c" opacity="0.5"/>
  <circle cx="24" cy="36" r="4" fill="#e74c3c" opacity="0.5"/>
  <circle cx="40" cy="36" r="4" fill="#e74c3c" opacity="0.5"/>
  <circle cx="56" cy="36" r="4" fill="#e74c3c" opacity="0.5"/>
  <circle cx="72" cy="36" r="4" fill="#e74c3c" opacity="0.5"/>
  <circle cx="32" cy="50" r="4" fill="#e74c3c" opacity="0.5"/>
  <circle cx="48" cy="50" r="4" fill="#e74c3c" opacity="0.5"/>
  <circle cx="64" cy="50" r="4" fill="#e74c3c" opacity="0.5"/>
  <circle cx="40" cy="64" r="4" fill="#e74c3c" opacity="0.5"/>
  <circle cx="56" cy="64" r="4" fill="#e74c3c" opacity="0.5"/>
  <circle cx="48" cy="76" r="3.5" fill="#e74c3c" opacity="0.5"/>
  <path d="M40 8 Q44 2 48 8" stroke="#27ae60" stroke-width="2.5" fill="none" stroke-linecap="round"/>
  <path d="M48 8 Q52 2 56 8" stroke="#27ae60" stroke-width="2.5" fill="none" stroke-linecap="round"/>
  <path d="M44 8 Q40 4 36 6" stroke="#27ae60" stroke-width="2" fill="none" stroke-linecap="round"/>
  <path d="M52 8 Q56 4 60 6" stroke="#27ae60" stroke-width="2" fill="none" stroke-linecap="round"/>
</svg>
